<?xml version="1.0" encoding="iso-8859-1"?>
<!-- Uploaded to: SVG Repo, www.svgrepo.com, Generator: SVG Repo Mixer Tools -->
<svg fill="#000000" height="800px" width="800px" version="1.1" id="Layer_1" xmlns="http://www.w3.org/2000/svg" xmlns:xlink="http://www.w3.org/1999/xlink" 
	 viewBox="0 0 512 512" xml:space="preserve">
<g>
	<g>
		<path d="M427.557,14.354c-1.466-4.392-6.21-6.768-10.614-5.301l-75.507,25.169c-2.61,0.869-4.629,2.966-5.399,5.604
			l-17.815,61.079h-59.069c0.62-4.24,1.041-8.515,1.041-12.814C260.193,39.515,220.674,0,172.102,0
			C123.529,0,84.01,39.515,84.01,88.092c0,47.36,36.762,85.728,83.897,87.936v67.503v243.26v0.057
			c0,13.871,11.294,25.153,25.177,25.153h159.388c13.883,0,25.177-11.282,25.177-25.153v-0.057V243.53V126.116
			c0-13.904-11.294-25.21-25.177-25.21h-16.769l15.212-52.157l71.337-23.784C426.647,23.506,429.023,18.754,427.557,14.354z
			 M313.327,117.685L279.07,235.141h-94.384V126.116c0-4.645,3.769-8.431,8.398-8.431H313.327z M243.414,88.092
			c0,4.314-0.507,8.592-1.274,12.814h-48.274l28.251-63.566C235.247,50.281,243.414,68.246,243.414,88.092z M103.531,107.696
			c-1.756-6.231-2.742-12.793-2.742-19.604c0-16.443,5.649-31.562,15.036-43.638l39.087,43.974L103.531,107.696z M167.907,126.116
			v33.102c-25.078-1.448-46.399-15.547-57.92-36.021l56.874-21.326l7.122,8.011C170.248,114.281,167.907,119.901,167.907,126.116z
			 M127.607,32.455c12.21-9.785,27.667-15.675,44.494-15.675c13.275,0,25.671,3.714,36.326,10.057l-28.606,64.361L127.607,32.455z
			 M360.869,486.79c0,4.645-3.769,8.431-8.398,8.431H193.084c-4.629,0-8.398-3.785-8.398-8.431V251.92h176.183V486.79z
			 M352.472,117.685c4.629,0,8.398,3.785,8.398,8.431v109.025h-64.321l34.259-117.456H352.472z"/>
	</g>
</g>
</svg>